<svg xmlns="http://www.w3.org/2000/svg" viewBox="0 0 1400 900" fill="none">
  <defs>
    <linearGradient id="sky" x1="0" y1="0" x2="0" y2="1">
      <stop offset="0" stop-color="#1f3b67" />
      <stop offset="0.52" stop-color="#244a7a" />
      <stop offset="1" stop-color="#0f2744" />
    </linearGradient>
    <radialGradient id="sun" cx="0" cy="0" r="1" gradientUnits="userSpaceOnUse" gradientTransform="translate(1028 256) rotate(90) scale(210 256)">
      <stop offset="0" stop-color="#ffd89f" stop-opacity="0.98" />
      <stop offset="0.42" stop-color="#ffba73" stop-opacity="0.72" />
      <stop offset="1" stop-color="#ff9f57" stop-opacity="0" />
    </radialGradient>
    <linearGradient id="ridge-far" x1="0" y1="0" x2="1" y2="1">
      <stop offset="0" stop-color="#365f8b" />
      <stop offset="1" stop-color="#28496d" />
    </linearGradient>
    <linearGradient id="ridge-mid" x1="0" y1="0" x2="1" y2="1">
      <stop offset="0" stop-color="#2d527a" />
      <stop offset="1" stop-color="#1f3f63" />
    </linearGradient>
    <linearGradient id="ground" x1="0" y1="0" x2="0" y2="1">
      <stop offset="0" stop-color="#294e76" />
      <stop offset="1" stop-color="#183553" />
    </linearGradient>
    <linearGradient id="lane" x1="0" y1="0" x2="0" y2="1">
      <stop offset="0" stop-color="#8eb6df" stop-opacity="0.5" />
      <stop offset="1" stop-color="#8eb6df" stop-opacity="0.08" />
    </linearGradient>
    <filter id="soft" x="-20%" y="-20%" width="140%" height="140%">
      <feGaussianBlur stdDeviation="14" />
    </filter>
  </defs>

  <rect width="1400" height="900" fill="url(#sky)" />
  <ellipse cx="1028" cy="256" rx="284" ry="182" fill="url(#sun)" />

  <path d="M-40 476L206 322L430 476H-40Z" fill="url(#ridge-far)" />
  <path d="M284 476L620 262L982 476H284Z" fill="url(#ridge-mid)" />
  <path d="M920 476L1120 348L1418 476H920Z" fill="url(#ridge-far)" />

  <rect y="476" width="1400" height="424" fill="url(#ground)" />
  <path d="M124 900L640 536L700 536L230 900H124Z" fill="url(#lane)" />
  <path d="M1268 900L760 536L700 536L1162 900H1268Z" fill="url(#lane)" />
  <path d="M246 900L670 558H730L352 900H246Z" fill="url(#lane)" />
  <path d="M1148 900L730 558H670L1042 900H1148Z" fill="url(#lane)" />
  <rect x="682" y="534" width="36" height="366" fill="#214364" />

  <g opacity="0.6">
    <rect x="1040" y="454" width="16" height="100" rx="5" fill="#142c47" />
    <rect x="1094" y="438" width="16" height="116" rx="5" fill="#142c47" />
    <rect x="1148" y="424" width="16" height="130" rx="5" fill="#142c47" />
    <rect x="1202" y="404" width="16" height="150" rx="5" fill="#142c47" />
  </g>

  <g>
    <rect x="308" y="462" width="240" height="20" rx="10" fill="#1a3553" />
    <rect x="326" y="482" width="10" height="120" fill="#1a3553" />
    <rect x="520" y="482" width="10" height="120" fill="#1a3553" />
    <line x1="336" y1="516" x2="520" y2="516" stroke="#234769" stroke-width="8" />
    <line x1="336" y1="548" x2="520" y2="548" stroke="#234769" stroke-width="8" />
    <line x1="336" y1="580" x2="520" y2="580" stroke="#234769" stroke-width="8" />
  </g>

  <g transform="translate(622 470)">
    <ellipse cx="88" cy="314" rx="110" ry="22" fill="#0a1627" opacity="0.56" filter="url(#soft)" />

    <circle cx="88" cy="88" r="26" fill="#071221" />
    <path d="M56 122H120L142 296H34L56 122Z" fill="#071221" />
    <rect x="38" y="184" width="22" height="108" rx="10" fill="#06101d" />
    <rect x="116" y="184" width="22" height="108" rx="10" fill="#06101d" />
    <path d="M66 296H100L88 430H54L66 296Z" fill="#050d18" />
    <path d="M98 296H132L160 430H126L98 296Z" fill="#050d18" />
    <rect x="14" y="140" width="20" height="124" rx="8" fill="#050f1b" />
    <rect x="142" y="146" width="18" height="116" rx="8" fill="#050f1b" />

    <rect x="102" y="138" width="50" height="96" rx="16" fill="#0c1a2d" />
    <rect x="112" y="150" width="30" height="48" rx="9" fill="#142a45" opacity="0.52" />
  </g>

  <g>
    <rect x="772" y="760" width="96" height="64" rx="12" fill="#162f4a" />
    <rect x="760" y="772" width="16" height="38" rx="8" fill="#1f3f63" />
    <rect x="864" y="772" width="16" height="38" rx="8" fill="#1f3f63" />
    <circle cx="828" cy="792" r="8" fill="#2d5e8f" />
  </g>

  <circle cx="188" cy="156" r="3" fill="#d7e7fb" opacity="0.6" />
  <circle cx="226" cy="124" r="2.4" fill="#d7e7fb" opacity="0.54" />
  <circle cx="266" cy="150" r="1.8" fill="#d7e7fb" opacity="0.48" />
  <path d="M1008 134C1028 122 1046 122 1066 134" stroke="#f8cf95" stroke-opacity="0.6" stroke-width="3" stroke-linecap="round" />
</svg>
